<svg xmlns="http://www.w3.org/2000/svg" viewBox="0 0 480 560" width="480" height="560">
  <defs>
    <linearGradient id="bg" x1="0" y1="0" x2="1" y2="1">
      <stop offset="0" stop-color="#1a1230"/>
      <stop offset="1" stop-color="#0a0714"/>
    </linearGradient>
    <filter id="glow" x="-50%" y="-50%" width="200%" height="200%">
      <feGaussianBlur stdDeviation="6" result="b"/>
      <feMerge><feMergeNode in="b"/><feMergeNode in="SourceGraphic"/></feMerge>
    </filter>
  </defs>
  <rect width="480" height="560" fill="url(#bg)"/>
  <g opacity="0.15" stroke="#b026ff" stroke-width="1">
    <line x1="0" y1="0" x2="0" y2="560"/><line x1="24" y1="0" x2="24" y2="560"/><line x1="48" y1="0" x2="48" y2="560"/><line x1="72" y1="0" x2="72" y2="560"/><line x1="96" y1="0" x2="96" y2="560"/><line x1="120" y1="0" x2="120" y2="560"/><line x1="144" y1="0" x2="144" y2="560"/><line x1="168" y1="0" x2="168" y2="560"/><line x1="192" y1="0" x2="192" y2="560"/><line x1="216" y1="0" x2="216" y2="560"/><line x1="240" y1="0" x2="240" y2="560"/><line x1="264" y1="0" x2="264" y2="560"/><line x1="288" y1="0" x2="288" y2="560"/><line x1="312" y1="0" x2="312" y2="560"/><line x1="336" y1="0" x2="336" y2="560"/><line x1="360" y1="0" x2="360" y2="560"/><line x1="384" y1="0" x2="384" y2="560"/><line x1="408" y1="0" x2="408" y2="560"/><line x1="432" y1="0" x2="432" y2="560"/><line x1="456" y1="0" x2="456" y2="560"/>
    <line x1="0" y1="0" x2="480" y2="0"/><line x1="0" y1="24" x2="480" y2="24"/><line x1="0" y1="48" x2="480" y2="48"/><line x1="0" y1="72" x2="480" y2="72"/><line x1="0" y1="96" x2="480" y2="96"/><line x1="0" y1="120" x2="480" y2="120"/><line x1="0" y1="144" x2="480" y2="144"/><line x1="0" y1="168" x2="480" y2="168"/><line x1="0" y1="192" x2="480" y2="192"/><line x1="0" y1="216" x2="480" y2="216"/><line x1="0" y1="240" x2="480" y2="240"/><line x1="0" y1="264" x2="480" y2="264"/><line x1="0" y1="288" x2="480" y2="288"/><line x1="0" y1="312" x2="480" y2="312"/><line x1="0" y1="336" x2="480" y2="336"/><line x1="0" y1="360" x2="480" y2="360"/><line x1="0" y1="384" x2="480" y2="384"/><line x1="0" y1="408" x2="480" y2="408"/><line x1="0" y1="432" x2="480" y2="432"/><line x1="0" y1="456" x2="480" y2="456"/><line x1="0" y1="480" x2="480" y2="480"/><line x1="0" y1="504" x2="480" y2="504"/><line x1="0" y1="528" x2="480" y2="528"/><line x1="0" y1="552" x2="480" y2="552"/>
  </g>
  <g filter="url(#glow)">
    <!-- pixel character: mai toc -->
    <rect x="168" y="120" width="144" height="48" fill="#b026ff"/>
    <rect x="144" y="168" width="24" height="24" fill="#b026ff"/>
    <rect x="312" y="168" width="24" height="24" fill="#b026ff"/>
    <!-- mat -->
    <rect x="168" y="168" width="144" height="120" fill="#e8c9a0"/>
    <rect x="192" y="216" width="24" height="24" fill="#0a0714"/>
    <rect x="264" y="216" width="24" height="24" fill="#0a0714"/>
    <rect x="192" y="264" width="96" height="12" fill="#0a0714" opacity="0.6"/>
    <!-- kinh (glasses) -->
    <rect x="180" y="204" width="48" height="8" fill="#05f2e8"/>
    <rect x="252" y="204" width="48" height="8" fill="#05f2e8"/>
    <rect x="228" y="204" width="24" height="8" fill="#05f2e8"/>
    <!-- ao -->
    <rect x="120" y="288" width="240" height="180" fill="#1a1230" stroke="#ff2079" stroke-width="6"/>
    <rect x="204" y="288" width="72" height="60" fill="#ff2079"/>
    <rect x="150" y="330" width="180" height="16" fill="#05f2e8" opacity="0.7"/>
    <rect x="150" y="360" width="120" height="16" fill="#ffd400" opacity="0.7"/>
  </g>
  <text x="24" y="536" font-family="monospace" font-size="14" letter-spacing="3" fill="#05f2e8" opacity="0.8">PLAYER 01 // PHAT.EXE</text>
</svg>