<svg xmlns="http://www.w3.org/2000/svg" viewBox="0 0 800 500" width="800" height="500">
  <defs>
    <linearGradient id="bg" x1="0" y1="0" x2="1" y2="1">
      <stop offset="0" stop-color="#170f2e"/>
      <stop offset="1" stop-color="#0a0714"/>
    </linearGradient>
    <filter id="glow" x="-60%" y="-60%" width="220%" height="220%">
      <feGaussianBlur stdDeviation="7" result="b"/>
      <feMerge><feMergeNode in="b"/><feMergeNode in="SourceGraphic"/></feMerge>
    </filter>
  </defs>
  <rect width="800" height="500" fill="url(#bg)"/>
  <g opacity="0.18" stroke="#05f2e8" stroke-width="1">
    <line x1="0" y1="0" x2="0" y2="500"/><line x1="40" y1="0" x2="40" y2="500"/><line x1="80" y1="0" x2="80" y2="500"/><line x1="120" y1="0" x2="120" y2="500"/><line x1="160" y1="0" x2="160" y2="500"/><line x1="200" y1="0" x2="200" y2="500"/><line x1="240" y1="0" x2="240" y2="500"/><line x1="280" y1="0" x2="280" y2="500"/><line x1="320" y1="0" x2="320" y2="500"/><line x1="360" y1="0" x2="360" y2="500"/><line x1="400" y1="0" x2="400" y2="500"/><line x1="440" y1="0" x2="440" y2="500"/><line x1="480" y1="0" x2="480" y2="500"/><line x1="520" y1="0" x2="520" y2="500"/><line x1="560" y1="0" x2="560" y2="500"/><line x1="600" y1="0" x2="600" y2="500"/><line x1="640" y1="0" x2="640" y2="500"/><line x1="680" y1="0" x2="680" y2="500"/><line x1="720" y1="0" x2="720" y2="500"/><line x1="760" y1="0" x2="760" y2="500"/>
    <line x1="0" y1="0" x2="800" y2="0"/><line x1="0" y1="40" x2="800" y2="40"/><line x1="0" y1="80" x2="800" y2="80"/><line x1="0" y1="120" x2="800" y2="120"/><line x1="0" y1="160" x2="800" y2="160"/><line x1="0" y1="200" x2="800" y2="200"/><line x1="0" y1="240" x2="800" y2="240"/><line x1="0" y1="280" x2="800" y2="280"/><line x1="0" y1="320" x2="800" y2="320"/><line x1="0" y1="360" x2="800" y2="360"/><line x1="0" y1="400" x2="800" y2="400"/><line x1="0" y1="440" x2="800" y2="440"/><line x1="0" y1="480" x2="800" y2="480"/>
  </g>
  <g filter="url(#glow)">
    <path d="M300 190 h60 l20 -24 h140 v170 h-220 z" fill="none" stroke="#05f2e8" stroke-width="6"/><rect x="330" y="230" width="150" height="90" fill="none" stroke="#b026ff" stroke-width="5"/><rect x="355" y="250" width="100" height="10" fill="#05f2e8"/><rect x="355" y="270" width="70" height="10" fill="#b026ff"/>
  </g>
  <text x="40" y="466" font-family="monospace" font-size="15" letter-spacing="4" fill="#05f2e8" opacity="0.85">BÀI 01 // FILE SYSTEM</text>
</svg>