<svg xmlns="http://www.w3.org/2000/svg" viewBox="0 0 800 500" width="800" height="500">
  <defs>
    <linearGradient id="bg" x1="0" y1="0" x2="1" y2="1">
      <stop offset="0" stop-color="#170f2e"/>
      <stop offset="1" stop-color="#0a0714"/>
    </linearGradient>
    <filter id="glow" x="-60%" y="-60%" width="220%" height="220%">
      <feGaussianBlur stdDeviation="7" result="b"/>
      <feMerge><feMergeNode in="b"/><feMergeNode in="SourceGraphic"/></feMerge>
    </filter>
  </defs>
  <rect width="800" height="500" fill="url(#bg)"/>
  <g opacity="0.18" stroke="#b026ff" stroke-width="1">
    <line x1="0" y1="0" x2="0" y2="500"/><line x1="40" y1="0" x2="40" y2="500"/><line x1="80" y1="0" x2="80" y2="500"/><line x1="120" y1="0" x2="120" y2="500"/><line x1="160" y1="0" x2="160" y2="500"/><line x1="200" y1="0" x2="200" y2="500"/><line x1="240" y1="0" x2="240" y2="500"/><line x1="280" y1="0" x2="280" y2="500"/><line x1="320" y1="0" x2="320" y2="500"/><line x1="360" y1="0" x2="360" y2="500"/><line x1="400" y1="0" x2="400" y2="500"/><line x1="440" y1="0" x2="440" y2="500"/><line x1="480" y1="0" x2="480" y2="500"/><line x1="520" y1="0" x2="520" y2="500"/><line x1="560" y1="0" x2="560" y2="500"/><line x1="600" y1="0" x2="600" y2="500"/><line x1="640" y1="0" x2="640" y2="500"/><line x1="680" y1="0" x2="680" y2="500"/><line x1="720" y1="0" x2="720" y2="500"/><line x1="760" y1="0" x2="760" y2="500"/>
    <line x1="0" y1="0" x2="800" y2="0"/><line x1="0" y1="40" x2="800" y2="40"/><line x1="0" y1="80" x2="800" y2="80"/><line x1="0" y1="120" x2="800" y2="120"/><line x1="0" y1="160" x2="800" y2="160"/><line x1="0" y1="200" x2="800" y2="200"/><line x1="0" y1="240" x2="800" y2="240"/><line x1="0" y1="280" x2="800" y2="280"/><line x1="0" y1="320" x2="800" y2="320"/><line x1="0" y1="360" x2="800" y2="360"/><line x1="0" y1="400" x2="800" y2="400"/><line x1="0" y1="440" x2="800" y2="440"/><line x1="0" y1="480" x2="800" y2="480"/>
  </g>
  <g filter="url(#glow)">
    <line x1="340" y1="190" x2="400" y2="260" stroke="#b026ff" stroke-width="4" opacity="0.7"/><line x1="460" y1="170" x2="400" y2="260" stroke="#b026ff" stroke-width="4" opacity="0.7"/><line x1="400" y1="260" x2="300" y2="300" stroke="#b026ff" stroke-width="4" opacity="0.7"/><line x1="400" y1="260" x2="500" y2="300" stroke="#b026ff" stroke-width="4" opacity="0.7"/><rect x="324" y="174" width="32" height="32" fill="#ffd400"/><rect x="444" y="154" width="32" height="32" fill="#05f2e8"/><rect x="384" y="244" width="32" height="32" fill="#ff2079"/><rect x="284" y="284" width="32" height="32" fill="#b026ff"/><rect x="484" y="284" width="32" height="32" fill="#ffd400"/>
  </g>
  <text x="40" y="466" font-family="monospace" font-size="15" letter-spacing="4" fill="#b026ff" opacity="0.85">BÀI 04 // TEAMWORK</text>
</svg>