<svg xmlns="http://www.w3.org/2000/svg" viewBox="0 0 800 500" width="800" height="500">
  <defs>
    <linearGradient id="bg" x1="0" y1="0" x2="1" y2="1">
      <stop offset="0" stop-color="#170f2e"/>
      <stop offset="1" stop-color="#0a0714"/>
    </linearGradient>
    <filter id="glow" x="-60%" y="-60%" width="220%" height="220%">
      <feGaussianBlur stdDeviation="7" result="b"/>
      <feMerge><feMergeNode in="b"/><feMergeNode in="SourceGraphic"/></feMerge>
    </filter>
  </defs>
  <rect width="800" height="500" fill="url(#bg)"/>
  <g opacity="0.18" stroke="#ff2079" stroke-width="1">
    <line x1="0" y1="0" x2="0" y2="500"/><line x1="40" y1="0" x2="40" y2="500"/><line x1="80" y1="0" x2="80" y2="500"/><line x1="120" y1="0" x2="120" y2="500"/><line x1="160" y1="0" x2="160" y2="500"/><line x1="200" y1="0" x2="200" y2="500"/><line x1="240" y1="0" x2="240" y2="500"/><line x1="280" y1="0" x2="280" y2="500"/><line x1="320" y1="0" x2="320" y2="500"/><line x1="360" y1="0" x2="360" y2="500"/><line x1="400" y1="0" x2="400" y2="500"/><line x1="440" y1="0" x2="440" y2="500"/><line x1="480" y1="0" x2="480" y2="500"/><line x1="520" y1="0" x2="520" y2="500"/><line x1="560" y1="0" x2="560" y2="500"/><line x1="600" y1="0" x2="600" y2="500"/><line x1="640" y1="0" x2="640" y2="500"/><line x1="680" y1="0" x2="680" y2="500"/><line x1="720" y1="0" x2="720" y2="500"/><line x1="760" y1="0" x2="760" y2="500"/>
    <line x1="0" y1="0" x2="800" y2="0"/><line x1="0" y1="40" x2="800" y2="40"/><line x1="0" y1="80" x2="800" y2="80"/><line x1="0" y1="120" x2="800" y2="120"/><line x1="0" y1="160" x2="800" y2="160"/><line x1="0" y1="200" x2="800" y2="200"/><line x1="0" y1="240" x2="800" y2="240"/><line x1="0" y1="280" x2="800" y2="280"/><line x1="0" y1="320" x2="800" y2="320"/><line x1="0" y1="360" x2="800" y2="360"/><line x1="0" y1="400" x2="800" y2="400"/><line x1="0" y1="440" x2="800" y2="440"/><line x1="0" y1="480" x2="800" y2="480"/>
  </g>
  <g filter="url(#glow)">
    <path d="M400 170 L419.6 220.4 L470 240 L419.6 259.6 L400 310 L380.4 259.6 L330 240 L380.4 220.4 Z" fill="#ff2079" opacity="1"/><path d="M490 154 L497.28 172.72 L516 180 L497.28 187.28 L490 206 L482.72 187.28 L464 180 L482.72 172.72 Z" fill="#ffd400" opacity="0.9"/><path d="M320 288 L326.16 303.84 L342 310 L326.16 316.16 L320 332 L313.84 316.16 L298 310 L313.84 303.84 Z" fill="#05f2e8" opacity="0.9"/><rect x="330" y="170" width="140" height="140" fill="none" stroke="#ffd400" stroke-width="4" opacity="0.5"/>
  </g>
  <text x="40" y="466" font-family="monospace" font-size="15" letter-spacing="4" fill="#ff2079" opacity="0.85">BÀI 05 // GENERATIVE AI</text>
</svg>